<?xml version="1.0" encoding="utf-8"?>
<!-- Generator: Adobe Illustrator 19.0.0, SVG Export Plug-In . SVG Version: 6.00 Build 0)  -->
<svg version="1.1" id="Layer_1" xmlns="http://www.w3.org/2000/svg" xmlns:xlink="http://www.w3.org/1999/xlink" x="0px" y="0px"
	 viewBox="0 0 172.6 172.6" style="enable-background:new 0 0 172.6 172.6;" xml:space="preserve">
<style type="text/css">
	.st0{fill:#6D9B49;}
	.st1{fill:#87C25D;}
</style>
<g id="XMLID_8241_">
	<g id="XMLID_8278_">
		<path id="XMLID_18_" class="st0" d="M153.5,53.1v75.2H19.1V53.1H153.5z M145.8,119.3V62.2h-119v57.1H145.8z"/>
		<path id="XMLID_15_" class="st1" d="M145.8,62.2v57.1h-119V62.2H145.8z M101.6,93.4c1.2-9.9-4.6-19.1-13-20.6S72.3,78.2,71,88.1
			c-1.2,9.9,4.6,19.1,13,20.6S100.4,103.3,101.6,93.4z"/>
		<path id="XMLID_14_" class="st0" d="M88.6,72.8c8.4,1.5,14.3,10.7,13,20.6c-1.2,9.9-9.1,16.7-17.5,15.3S69.8,98,71,88.1
			C72.3,78.2,80.1,71.4,88.6,72.8z"/>
	</g>
	<g id="XMLID_8279_">
	</g>
</g>
</svg>
