<?xml version="1.0" encoding="utf-8"?>
<!-- Generator: Adobe Illustrator 19.0.0, SVG Export Plug-In . SVG Version: 6.00 Build 0)  -->
<svg version="1.1" id="Layer_1" xmlns="http://www.w3.org/2000/svg" xmlns:xlink="http://www.w3.org/1999/xlink" x="0px" y="0px"
	 viewBox="0 0 172.6 172.6" style="enable-background:new 0 0 172.6 172.6;" xml:space="preserve">
<style type="text/css">
	.st0{fill:#F9A924;}
	.st1{fill:#FDD838;}
	.st2{fill:#FEEA3A;}
	.st3{fill:#F9C02D;}
</style>
<g id="XMLID_8926_">
	<g id="XMLID_8985_">
		<path id="XMLID_40_" class="st0" d="M141.1,88.5c0,0.2,0,0.5,0,0.7s0,0.5,0,0.7h-2.8v-1.5H141.1z"/>
		<path id="XMLID_37_" class="st1" d="M141.1,88.5h-2.8V90h2.8c-0.1,6.9-1.5,13.5-3.9,19.5l0,0l-2.6-1.1l-0.6,1.4l2.6,1.1l0,0
			c-2.7,6.2-6.4,11.8-11.1,16.6l-2-2l-1,1l2,2c-4.8,4.6-10.4,8.4-16.6,11.1l0,0l-1.1-2.6l-1.4,0.6l1.1,2.6l0,0
			c-6.1,2.4-12.6,3.8-19.5,3.9v-2.8h-1.5v2.8c-6.9-0.1-13.5-1.5-19.5-3.9l0,0l1.1-2.6l-1.4-0.6l-1.1,2.6l0,0
			c-6.2-2.7-11.8-6.4-16.6-11.1l2-2l-1-1l-2,2c-4.6-4.8-8.4-10.4-11.1-16.6l0,0l2.6-1.1l-0.6-1.4l-2.6,1.1l0,0
			c-2.4-6.1-3.8-12.6-3.9-19.5h2.8v-1.5h-2.8c0.1-6.9,1.5-13.5,3.9-19.5l0,0l2.6,1.1l0.6-1.4L36,67.6l0,0
			c2.7-6.2,6.4-11.8,11.1-16.6l2,2l1-1l-2-2c4.8-4.6,10.4-8.4,16.6-11.1l0,0l1.1,2.6l1.4-0.6L66,38.4l0,0c6.1-2.4,12.6-3.8,19.5-3.9
			v2.8H87v-2.8c6.9,0.1,13.5,1.5,19.5,3.9l0,0l-1.1,2.6l1.4,0.6l1.1-2.6l0,0c6.2,2.7,11.8,6.4,16.6,11.1l-2,2l1,1l2-2
			c4.6,4.8,8.4,10.4,11.1,16.6l0,0l-2.6,1.1l0.6,1.4l2.6-1.1l0,0C139.6,75.1,141,81.6,141.1,88.5z M128.8,91.4
			c0-0.7,0.1-1.4,0.1-2.2c0-23.5-19.1-42.6-42.6-42.6c-23.5,0-42.6,19.1-42.6,42.6s19.1,42.6,42.6,42.6c0.7,0,1.4,0,2.2-0.1
			C110.3,130.7,127.7,113.2,128.8,91.4z"/>
		<path id="XMLID_36_" class="st0" d="M137.2,69L137.2,69l-2.6,1.1l-0.6-1.4l2.6-1.1l0,0C136.8,68.1,137,68.5,137.2,69z"/>
		<path id="XMLID_35_" class="st0" d="M137.2,109.6L137.2,109.6c-0.2,0.5-0.4,0.9-0.6,1.4l0,0l-2.6-1.1l0.6-1.4L137.2,109.6z"/>
		<path id="XMLID_34_" class="st0" d="M128.9,89.3c0,0.7,0,1.4-0.1,2.2c0.6-17.2-9.4-33-25.1-39.8c-15.8-6.9-34.1-3.4-46.3,8.8
			c-12.2,12.2-15.6,30.5-8.8,46.3c6.9,15.8,22.7,25.7,39.8,25.1c-0.7,0-1.4,0.1-2.2,0.1c-23.5,0-42.6-19.1-42.6-42.6
			s19.1-42.6,42.6-42.6C109.8,46.7,128.9,65.8,128.9,89.3z"/>
		<path id="XMLID_31_" class="st2" d="M103.7,51.6c15.8,6.9,25.7,22.7,25.1,39.8c-1.1,21.8-18.6,39.3-40.4,40.4
			c-17.2,0.6-33-9.4-39.8-25.1c-6.9-15.8-3.4-34.1,8.8-46.3C69.6,48.2,87.9,44.8,103.7,51.6z M111.4,64.3l1-1H96.8L76,85V64.3v-1
			H64.7v54.1h1H76v-16.1l15.4,16.1h1.4H107L83.8,93.1L111.4,64.3z"/>
		<path id="XMLID_30_" class="st0" d="M125.6,51.1l-2,2l-1-1l2-2C124.9,50.4,125.2,50.7,125.6,51.1z"/>
		<path id="XMLID_29_" class="st0" d="M123.6,125.5l2,2c-0.3,0.4-0.7,0.7-1,1l-2-2L123.6,125.5z"/>
		<polygon id="XMLID_28_" class="st0" points="112.4,63.2 111.4,64.3 97.2,64.3 76.7,85.7 76,85 96.8,63.2 		"/>
		<polygon id="XMLID_27_" class="st3" points="111.4,64.3 83.8,93.1 107,117.4 92.8,117.4 77.4,101.3 76,101.3 76,117.4 65.7,117.4 
			65.7,64.3 76,64.3 76,85 76.7,85.7 97.2,64.3 		"/>
		<path id="XMLID_26_" class="st0" d="M107.9,39L107.9,39l-1.1,2.6l-1.4-0.6l1.1-2.6l0,0C107,38.6,107.5,38.8,107.9,39z"/>
		<path id="XMLID_25_" class="st0" d="M107.9,139.6L107.9,139.6c-0.4,0.2-0.9,0.4-1.4,0.6l0,0l-1.1-2.6l1.4-0.6L107.9,139.6z"/>
		<polygon id="XMLID_24_" class="st0" points="77.4,101.3 92.8,117.4 91.4,117.4 76,101.3 		"/>
		<path id="XMLID_23_" class="st0" d="M87,141.2v2.8c-0.2,0-0.5,0-0.7,0c-0.2,0-0.5,0-0.7,0v-2.8H87z"/>
		<path id="XMLID_22_" class="st0" d="M87,34.5v2.8h-1.5v-2.8c0.2,0,0.5,0,0.7,0C86.6,34.5,86.8,34.5,87,34.5z"/>
		<polygon id="XMLID_21_" class="st0" points="76,63.2 76,64.3 65.7,64.3 65.7,117.4 64.7,117.4 64.7,63.2 		"/>
		<path id="XMLID_20_" class="st0" d="M66,38.4l1.1,2.6l-1.4,0.6L64.7,39l0,0C65.1,38.8,65.6,38.6,66,38.4L66,38.4z"/>
		<path id="XMLID_19_" class="st0" d="M67.1,137.6l-1.1,2.6l0,0c-0.5-0.2-0.9-0.4-1.4-0.6l0,0l1.1-2.6L67.1,137.6z"/>
		<path id="XMLID_18_" class="st0" d="M48.1,50l2,2l-1,1l-2-2C47.4,50.7,47.7,50.4,48.1,50z"/>
		<path id="XMLID_17_" class="st0" d="M49,125.5l1,1l-2,2c-0.4-0.3-0.7-0.7-1-1L49,125.5z"/>
		<path id="XMLID_16_" class="st0" d="M38.6,68.7L38,70.1L35.4,69l0,0c0.2-0.5,0.4-0.9,0.6-1.4l0,0L38.6,68.7z"/>
		<path id="XMLID_15_" class="st0" d="M38,108.5l0.6,1.4l-2.6,1.1l0,0c-0.2-0.5-0.4-0.9-0.6-1.4l0,0L38,108.5z"/>
		<path id="XMLID_14_" class="st0" d="M34.4,88.5V90h-2.8c0-0.2,0-0.5,0-0.7s0-0.5,0-0.7H34.4z"/>
	</g>
	<g id="XMLID_8984_">
	</g>
</g>
</svg>
