<?xml version="1.0" encoding="utf-8"?>
<!-- Generator: Adobe Illustrator 19.0.0, SVG Export Plug-In . SVG Version: 6.00 Build 0)  -->
<svg version="1.1" id="Layer_1" xmlns="http://www.w3.org/2000/svg" xmlns:xlink="http://www.w3.org/1999/xlink" x="0px" y="0px"
	 viewBox="0 0 172.6 172.6" style="enable-background:new 0 0 172.6 172.6;" xml:space="preserve">
<style type="text/css">
	.st0{fill:#838383;}
</style>
<path id="XMLID_2082_" class="st0" d="M122.1,113.6v4.2c0,4.6-3.8,8.4-8.4,8.4h-59c-4.7,0-8.4-3.8-8.4-8.4v-59
	c0-4.6,3.8-8.4,8.4-8.4h59c4.6,0,8.4,3.8,8.4,8.4V63H84.2c-4.7,0-8.4,3.8-8.4,8.4v33.7c0,4.6,3.8,8.4,8.4,8.4H122.1z M84.2,105.2
	h42.2V71.5H84.2V105.2z M101.1,94.6c-3.5,0-6.3-2.8-6.3-6.3s2.8-6.3,6.3-6.3c3.5,0,6.3,2.8,6.3,6.3S104.6,94.6,101.1,94.6z"/>
</svg>
